<svg width="171" height="171" viewBox="0 0 171 171" fill="none" xmlns="http://www.w3.org/2000/svg">
<g clip-path="url(#clip0_11_9)">
<rect x="10" y="10" width="151" height="151" rx="12" fill="white"/>
<path opacity="0.967" fill-rule="evenodd" clip-rule="evenodd" d="M16.2917 10C62.4305 10 108.569 10 154.708 10C157.33 11.5729 159.427 13.6701 161 16.2917C161 62.4305 161 108.569 161 154.708C159.427 157.33 157.33 159.427 154.708 161C108.569 161 62.4305 161 16.2917 161C13.6701 159.427 11.5729 157.33 10 154.708C10 108.569 10 62.4305 10 16.2917C11.5729 13.6701 13.6701 11.5729 16.2917 10ZM107.521 49.3229C114.643 50.3892 121.197 53.0108 127.182 57.1875C136.345 73.9101 140.539 91.7364 139.766 110.667C132.897 117.771 124.508 121.966 114.599 123.25C111.211 121.96 108.852 119.6 107.521 116.172C111.374 115.032 115.044 113.459 118.531 111.453C121.409 109.702 122.719 107.343 122.464 104.375C97.8211 119.055 73.1789 119.055 48.5365 104.375C47.4878 105.948 47.4878 107.521 48.5365 109.094C52.8591 112.173 57.3157 115.057 61.9062 117.745C57.2624 123.994 51.4951 125.042 44.6042 120.891C30.9937 116.482 26.5372 107.306 31.2344 93.3646C33.2626 80.139 37.7192 67.8179 44.6042 56.401C48.2494 53.2667 52.4439 51.4316 57.1875 50.8958C42.4117 61.038 43.4603 62.3487 60.3333 54.8281C81.5561 49.4937 102.266 51.3289 122.464 60.3333C125.171 60.1592 125.434 59.3727 123.25 57.974C118.112 54.6241 112.869 51.7405 107.521 49.3229Z" fill="black"/>
<path opacity="0.866" fill-rule="evenodd" clip-rule="evenodd" d="M65.8385 78.4219C75.667 80.2389 79.0749 86.0063 76.0625 95.7239C69.7708 102.016 63.4792 102.016 57.1875 95.7239C54.3328 86.8448 57.2166 81.0774 65.8385 78.4219Z" fill="black"/>
<path opacity="0.828" fill-rule="evenodd" clip-rule="evenodd" d="M100.443 78.4219C113.464 81.6564 116.085 88.7345 108.307 99.6562C96.1074 103.173 90.6022 98.7161 91.7916 86.2864C93.532 82.1764 96.4158 79.5548 100.443 78.4219Z" fill="black"/>
</g>
<rect x="10" y="10" width="151" height="151" rx="12" stroke="black" stroke-opacity="0.01" stroke-width="20"/>
<defs>
<clipPath id="clip0_11_9">
<rect x="10" y="10" width="151" height="151" rx="12" fill="white"/>
</clipPath>
</defs>
</svg>
